<svg xmlns="http://www.w3.org/2000/svg" width="1050" height="720" viewBox="0 0 1050 720"><defs><linearGradient id="g" x1="0" x2="1"><stop stop-color="#00C6FF"/><stop offset="1" stop-color="#7F00FF"/></linearGradient><filter id="glow"><feGaussianBlur stdDeviation="4" result="b"/><feMerge><feMergeNode in="b"/><feMergeNode in="SourceGraphic"/></feMerge></filter></defs><rect width="1050" height="720" rx="28" fill="#07111f" stroke="#17304d" stroke-width="2"/><rect x="35" y="30" width="980" height="660" rx="22" fill="#050b14" stroke="#24415f"/><circle cx="65" cy="58" r="7" fill="#ff5f56"/><circle cx="89" cy="58" r="7" fill="#ffbd2e"/><circle cx="113" cy="58" r="7" fill="#27c93f"/><text x="145" y="64" fill="#8fb3d9" font-family="Arial" font-size="15" font-weight="700">Windows PowerShell — SSNC SETUP TERMINAL</text><g font-family="monospace" font-size="15"><text x="65" y="105" fill="#00C6FF">PS C:\SSNC&gt;</text><text x="190" y="105" fill="white">.venv\Scripts\activate</text><text x="65" y="155" fill="#00C6FF">PS C:\SSNC&gt;</text><text x="190" y="155" fill="white">pip install -r requirements.txt</text><text x="65" y="205" fill="#00C6FF">PS C:\SSNC&gt;</text><text x="190" y="205" fill="white">python manage.py migrate</text><text x="65" y="255" fill="#00C6FF">PS C:\SSNC&gt;</text><text x="190" y="255" fill="white">python manage.py createsuperuser</text><text x="65" y="305" fill="#00C6FF">PS C:\SSNC&gt;</text><text x="190" y="305" fill="white">python manage.py seed_curriculum</text><text x="65" y="355" fill="#00C6FF">PS C:\SSNC&gt;</text><text x="190" y="355" fill="white">python manage.py runserver</text></g><path d="M65 385H965" stroke="url(#g)" stroke-width="2"/><text x="65" y="425" fill="#7F00FF" font-family="Arial" font-size="15" font-weight="700">▶ COPY-READY COMMANDS</text><rect x="65" y="445" width="900" height="165" rx="15" fill="#0b1727" stroke="#24415f"/><g fill="#8fb3d9" font-family="monospace" font-size="14"><text x="90" y="480">git clone https://github.com/RICK2814/SSNC.git</text><text x="90" y="510">cd SSNC</text><text x="90" y="540">python -m venv .venv</text><text x="90" y="570">.venv\Scripts\activate</text><text x="90" y="600">python manage.py runserver</text></g><text x="525" y="650" text-anchor="middle" fill="#8fb3d9" font-family="Arial" font-size="12">The animated panel is visual; use the copyable Markdown commands directly below it.</text><circle r="5" fill="white" filter="url(#glow)"><animateMotion dur="4s" repeatCount="indefinite" path="M65 385H965"/></circle></svg>